PathFileType	4	(X/Y/Z)	/home/nbianco/projects/addbio/data/HamnerRunning2013/Processed/subject04//results/MarkerData/run200.trc
DataRate	CameraRate	NumFrames	NumMarkers	Units	OrigDataRate	OrigDataStartFrame	OrigNumFrames
100	100	9	42	m	100	29	237
Frame#	Time	C7			CLAV			LACR			LASI			LCAL			LFAradius			LFAsuperior			LFAulna			LLEL			LMEL			LMT5			LPSI			LTB1			LTB2			LTB3			LTH1			LTH2			LTH3			LTOE			LUA1			LUA2			LUA3			RACR			RASI			RCAL			RFAradius			RFAsuperior			RFAulna			RLEL			RMEL			RMT5			RPSI			RTB1			RTB2			RTB3			RTH1			RTH2			RTH3			RTOE			RUA1			RUA2			RUA3		
		X1	Y1	Z1	X2	Y2	Z2	X3	Y3	Z3	X4	Y4	Z4	X5	Y5	Z5	X6	Y6	Z6	X7	Y7	Z7	X8	Y8	Z8	X9	Y9	Z9	X10	Y10	Z10	X11	Y11	Z11	X12	Y12	Z12	X13	Y13	Z13	X14	Y14	Z14	X15	Y15	Z15	X16	Y16	Z16	X17	Y17	Z17	X18	Y18	Z18	X19	Y19	Z19	X20	Y20	Z20	X21	Y21	Z21	X22	Y22	Z22	X23	Y23	Z23	X24	Y24	Z24	X25	Y25	Z25	X26	Y26	Z26	X27	Y27	Z27	X28	Y28	Z28	X29	Y29	Z29	X30	Y30	Z30	X31	Y31	Z31	X32	Y32	Z32	X33	Y33	Z33	X34	Y34	Z34	X35	Y35	Z35	X36	Y36	Z36	X37	Y37	Z37	X38	Y38	Z38	X39	Y39	Z39	X40	Y40	Z40	X41	Y41	Z41	X42	Y42	Z42

30	1.12	1.14298	1.58935	-0.280211	1.26073	1.50331	-0.288255	1.1582	1.59036	-0.454151	1.21961	1.03079	-0.456833	1.09064	0.160423	-0.359485	1.11223	1.27699	-0.511993	0.952536	1.35514	-0.547469	1.06891	1.22132	-0.524224	0.890925	1.41688	-0.53333	0.885623	1.40247	-0.441134	1.29128	0.0880988	-0.441436	1.04816	1.09238	-0.366001	1.29004	0.392485	-0.403034	1.23644	0.344387	-0.442411	1.23752	0.264285	-0.387232	1.16473	0.896684	-0.51054	1.27852	0.802468	-0.488524	1.25205	0.668331	-0.473585	1.32696	0.104543	-0.357576	1.04426	1.542	-0.511444	0.975016	1.52138	-0.456817	0.946882	1.46564	-0.523314	1.25559	1.55417	-0.139214	1.22129	1.0324	-0.196006	0.74396	0.194243	-0.285002	1.32068	1.33021	-0.188741	1.2367	1.2845	-0.0488679	1.3399	1.26143	-0.172943	1.16638	1.26383	0.00310296	1.09159	1.26594	-0.0594351	0.913593	0.0571987	-0.232319	1.04883	1.08912	-0.273111	0.996977	0.370578	-0.253646	0.906952	0.300143	-0.215579	0.894871	0.226332	-0.280085	1.15181	0.854295	-0.147084	1.16024	0.749568	-0.16484	1.05543	0.634044	-0.176782	0.941224	0.0687652	-0.308771	1.23357	1.41931	-0.0545685	1.17017	1.40994	-0.0286024	1.19031	1.34069	-0.0197514
31	1.13	1.14246	1.59415	-0.280965	1.26059	1.50887	-0.289061	1.15836	1.59544	-0.454134	1.22132	1.03538	-0.45693	1.1153	0.148064	-0.355814	1.11245	1.28508	-0.511789	0.951835	1.36229	-0.546105	1.06939	1.2292	-0.52354	0.890036	1.42363	-0.531516	0.885552	1.40913	-0.439277	1.32151	0.0892862	-0.43494	1.04955	1.09684	-0.365916	1.29703	0.394129	-0.400252	1.24779	0.341602	-0.439353	1.25412	0.262516	-0.383391	1.16501	0.90099	-0.510413	1.27689	0.804793	-0.488614	1.24699	0.67039	-0.47043	1.35523	0.10973	-0.351083	1.04378	1.54885	-0.511038	0.975403	1.52774	-0.45516	0.946261	1.47264	-0.522124	1.25527	1.56141	-0.141221	1.2225	1.03641	-0.196114	0.734172	0.205518	-0.283083	1.31966	1.33622	-0.189917	1.23743	1.29249	-0.0480839	1.33763	1.26714	-0.174375	1.16781	1.27331	0.00522471	1.09185	1.27554	-0.056212	0.895528	0.0576002	-0.232138	1.05025	1.09342	-0.272921	0.986532	0.377766	-0.252991	0.895901	0.307945	-0.214298	0.883767	0.233211	-0.27828	1.15076	0.858146	-0.147534	1.1565	0.753529	-0.166017	1.04929	0.640176	-0.177084	0.923892	0.0695352	-0.308264	1.23463	1.42884	-0.0545502	1.17161	1.41967	-0.0284291	1.19197	1.3505	-0.0181267
32	1.14	1.14211	1.59817	-0.28178	1.26061	1.51354	-0.289831	1.15869	1.5997	-0.45449	1.2229	1.03976	-0.456694	1.13891	0.137032	-0.351906	1.11333	1.29187	-0.511697	0.951853	1.36809	-0.545129	1.07062	1.23575	-0.52317	0.889771	1.42892	-0.530239	0.8859	1.4143	-0.437938	1.34973	0.0918656	-0.427929	1.05073	1.1006	-0.365788	1.30257	0.395345	-0.396859	1.25817	0.338829	-0.435925	1.26918	0.261158	-0.378996	1.16524	0.90379	-0.509661	1.27445	0.805305	-0.48849	1.24131	0.671226	-0.468216	1.38106	0.116191	-0.344121	1.04367	1.55422	-0.510849	0.976092	1.53289	-0.454025	0.946169	1.47819	-0.521378	1.25478	1.56762	-0.143236	1.22359	1.0402	-0.195888	0.725378	0.217166	-0.281116	1.31864	1.34036	-0.191011	1.23749	1.29932	-0.0473402	1.33503	1.27111	-0.17528	1.1684	1.28182	0.00708186	1.09195	1.28422	-0.0535048	0.877703	0.058499	-0.232006	1.05117	1.09713	-0.272753	0.977866	0.384405	-0.252395	0.886363	0.315537	-0.213044	0.873752	0.240086	-0.276622	1.15027	0.86183	-0.147792	1.15367	0.757213	-0.167487	1.04472	0.645774	-0.177617	0.906903	0.0707139	-0.307697	1.23535	1.43734	-0.0546649	1.17267	1.42835	-0.0285465	1.19301	1.35929	-0.0167494
33	1.15	1.14197	1.60135	-0.282641	1.26076	1.51721	-0.290511	1.15919	1.60298	-0.455033	1.22432	1.04372	-0.456273	1.16075	0.127403	-0.347643	1.11488	1.2973	-0.511746	0.95256	1.37244	-0.544541	1.07257	1.24093	-0.523089	0.890053	1.43259	-0.529474	0.88669	1.41792	-0.437109	1.3752	0.0955914	-0.420414	1.05177	1.10355	-0.365679	1.30656	0.396068	-0.393317	1.26686	0.336188	-0.432431	1.28225	0.260133	-0.374512	1.16536	0.905228	-0.508389	1.27151	0.80435	-0.487884	1.23566	0.671055	-0.467247	1.40374	0.123953	-0.336781	1.04399	1.5581	-0.510963	0.977018	1.53672	-0.45359	0.946559	1.48218	-0.521092	1.25422	1.57265	-0.145202	1.2245	1.04357	-0.195478	0.717551	0.228952	-0.279026	1.31761	1.34257	-0.191894	1.23684	1.30487	-0.0466061	1.3322	1.27326	-0.175665	1.16812	1.2892	0.00873669	1.09133	1.29183	-0.0511677	0.860184	0.0601281	-0.231823	1.05162	1.10021	-0.272665	0.971104	0.389942	-0.25167	0.878422	0.32256	-0.211816	0.86476	0.246605	-0.274919	1.15035	0.865153	-0.147872	1.15222	0.760345	-0.169108	1.04201	0.650491	-0.178143	0.890332	0.0722929	-0.306999	1.23574	1.44453	-0.054924	1.17322	1.4358	-0.0290415	1.1934	1.36689	-0.0156374
34	1.16	1.14206	1.60366	-0.283571	1.26102	1.51977	-0.29112	1.15985	1.60503	-0.455515	1.22554	1.04705	-0.455836	1.18008	0.119401	-0.342891	1.11709	1.3013	-0.511971	0.95391	1.37519	-0.544352	1.07524	1.24467	-0.523275	0.8908	1.43449	-0.529182	0.887898	1.41987	-0.436783	1.39715	0.0999632	-0.41261	1.05266	1.10559	-0.365638	1.30912	0.396316	-0.390308	1.27322	0.333838	-0.4291	1.29307	0.259407	-0.370464	1.16537	0.905691	-0.506858	1.26849	0.802409	-0.48661	1.23044	0.67002	-0.467056	1.42262	0.132598	-0.329397	1.04469	1.56046	-0.511453	0.978072	1.53907	-0.453887	0.947333	1.48455	-0.52125	1.25373	1.57637	-0.147043	1.22522	1.04632	-0.195051	0.710751	0.240635	-0.276605	1.31651	1.34293	-0.192275	1.23548	1.30895	-0.0459041	1.32919	1.27351	-0.175549	1.16696	1.29528	0.0101516	1.0898	1.29825	-0.0492938	0.843168	0.0624543	-0.231502	1.05188	1.10257	-0.272666	0.966251	0.393972	-0.250867	0.872147	0.32868	-0.210577	0.856756	0.252466	-0.273075	1.15108	0.867685	-0.147921	1.15251	0.762625	-0.170646	1.04149	0.653865	-0.178405	0.874218	0.074197	-0.306142	1.23573	1.45019	-0.055246	1.1731	1.44189	-0.0298692	1.19307	1.37315	-0.0147596
35	1.17	1.14235	1.60508	-0.284636	1.26136	1.52119	-0.291734	1.16072	1.60578	-0.455997	1.22657	1.04962	-0.45549	1.19618	0.113251	-0.337593	1.11992	1.30384	-0.512375	0.955843	1.37623	-0.544578	1.07859	1.24691	-0.523701	0.891952	1.43456	-0.529367	0.889421	1.42006	-0.436948	1.41483	0.104255	-0.404947	1.05334	1.10665	-0.365664	1.31055	0.396164	-0.388059	1.27703	0.331844	-0.425884	1.30151	0.258933	-0.366973	1.1653	0.905565	-0.505407	1.26569	0.799821	-0.484788	1.22572	0.668181	-0.466849	1.4373	0.141126	-0.322434	1.0457	1.56127	-0.51234	0.979119	1.53985	-0.454855	0.948387	1.48524	-0.521868	1.25343	1.57865	-0.148647	1.22575	1.04831	-0.194715	0.705157	0.25208	-0.273585	1.31524	1.34151	-0.19198	1.23338	1.31136	-0.0452867	1.32599	1.27182	-0.174963	1.16492	1.29989	0.0112546	1.08759	1.30333	-0.0481173	0.826867	0.0652714	-0.230977	1.05213	1.10403	-0.272738	0.963241	0.396389	-0.250176	0.867606	0.333713	-0.209259	0.849817	0.25755	-0.271139	1.15253	0.869047	-0.14813	1.15452	0.763878	-0.171926	1.04337	0.655496	-0.17829	0.858564	0.0763264	-0.30514	1.23518	1.45422	-0.0554665	1.17223	1.44651	-0.0308541	1.19198	1.37789	-0.014054
36	1.18	1.14283	1.6056	-0.285882	1.26178	1.52146	-0.292381	1.16181	1.60539	-0.456886	1.22746	1.05142	-0.455278	1.20837	0.108825	-0.331781	1.12333	1.30493	-0.51294	0.958305	1.37548	-0.545232	1.0826	1.2476	-0.524308	0.893499	1.43279	-0.530089	0.891172	1.41846	-0.437614	1.42762	0.107703	-0.397957	1.05375	1.10675	-0.365731	1.31112	0.39565	-0.386085	1.27869	0.330084	-0.422492	1.30751	0.258524	-0.363633	1.16523	0.905005	-0.504334	1.26318	0.796671	-0.482915	1.22142	0.665615	-0.466109	1.4477	0.148208	-0.316309	1.04691	1.56049	-0.513618	0.98007	1.539	-0.456407	0.94966	1.48423	-0.523026	1.25337	1.57948	-0.149883	1.22613	1.04952	-0.194514	0.701014	0.263265	-0.269777	1.31376	1.3382	-0.191245	1.23057	1.31198	-0.0447778	1.32259	1.26817	-0.173985	1.16198	1.30291	0.0120067	1.08493	1.30697	-0.0477659	0.811331	0.0683491	-0.230192	1.05235	1.10449	-0.27287	0.961977	0.397338	-0.249718	0.864832	0.337664	-0.207788	0.844069	0.261904	-0.269171	1.15464	0.869145	-0.14863	1.15778	0.764078	-0.173081	1.04754	0.655229	-0.17795	0.843366	0.0786344	-0.303991	1.23399	1.45659	-0.0554486	1.17063	1.44951	-0.0317934	1.19007	1.38098	-0.0134768
37	1.19	1.14343	1.60519	-0.287287	1.26223	1.52062	-0.293013	1.16313	1.60404	-0.458489	1.22822	1.05245	-0.455202	1.21616	0.105485	-0.325566	1.12727	1.30452	-0.513638	0.961272	1.37293	-0.546338	1.08721	1.24669	-0.525007	0.895477	1.42922	-0.531419	0.893185	1.41512	-0.438835	1.4353	0.109765	-0.392035	1.05386	1.10587	-0.365833	1.31101	0.39468	-0.383581	1.27893	0.328276	-0.418634	1.31105	0.257813	-0.359831	1.16524	0.903887	-0.503801	1.26099	0.792895	-0.481717	1.21755	0.662515	-0.464749	1.454	0.152741	-0.311199	1.04832	1.55811	-0.515286	0.980949	1.53657	-0.458487	0.951159	1.48153	-0.524807	1.25348	1.57889	-0.150685	1.2264	1.04997	-0.194448	0.698499	0.274188	-0.265135	1.31206	1.33273	-0.190585	1.22711	1.31082	-0.0443463	1.31896	1.26256	-0.172702	1.15817	1.30431	0.0123762	1.08183	1.30912	-0.0481494	0.796441	0.0715158	-0.229136	1.0523	1.10392	-0.273033	0.96234	0.397052	-0.24943	0.863773	0.340682	-0.206102	0.839566	0.265649	-0.267112	1.15722	0.868126	-0.149462	1.16168	0.763258	-0.174529	1.05354	0.653218	-0.177706	0.828674	0.0811953	-0.302644	1.23216	1.45729	-0.0551902	1.16838	1.45081	-0.0325845	1.18733	1.38233	-0.013045
38	1.2	1.14412	1.60379	-0.288769	1.26264	1.51867	-0.293559	1.16468	1.6017	-0.460622	1.22887	1.05273	-0.455234	1.21944	0.102433	-0.319158	1.13168	1.30259	-0.514433	0.96476	1.36865	-0.547915	1.0924	1.24417	-0.525714	0.897944	1.4239	-0.533392	0.895596	1.41013	-0.440676	1.4381	0.110196	-0.387133	1.05368	1.10399	-0.365978	1.31023	0.393033	-0.380056	1.2783	0.32609	-0.414281	1.31214	0.256374	-0.355242	1.16536	0.901987	-0.503786	1.25924	0.788527	-0.481768	1.21441	0.659174	-0.462827	1.45648	0.154281	-0.30687	1.05003	1.5542	-0.517351	0.981904	1.5326	-0.461078	0.952961	1.47716	-0.527208	1.25361	1.57695	-0.15111	1.22654	1.04966	-0.19449	0.697573	0.284771	-0.259679	1.31017	1.325	-0.190274	1.22306	1.30794	-0.0439512	1.31504	1.25509	-0.171119	1.15357	1.30416	0.0122909	1.07816	1.30985	-0.0490916	0.782188	0.0747248	-0.227915	1.0518	1.10228	-0.273145	0.964176	0.395741	-0.249101	0.864288	0.342968	-0.204149	0.836244	0.268934	-0.264799	1.16007	0.866189	-0.150541	1.16585	0.761454	-0.176474	1.06067	0.64981	-0.17778	0.814657	0.0842323	-0.301113	1.22977	1.45635	-0.054822	1.16558	1.45044	-0.0332754	1.1838	1.38195	-0.0128397
